<svg id="Layer_5" enable-background="new 0 0 38 62" height="512" viewBox="0 0 38 62" width="512" xmlns="http://www.w3.org/2000/svg"><g><path d="m21 24h-4c-2.757 0-5 2.243-5 5v1h2.22l.083.332c.539 2.159 2.471 3.668 4.697 3.668s4.158-1.509 4.697-3.668l.083-.332h2.22v-1c0-2.757-2.243-5-5-5zm2.829 4h-1.829v-1.824c.85.302 1.527.974 1.829 1.824zm-5.829-2h2v2h-2zm-2 .176v1.824h-1.829c.302-.85.979-1.522 1.829-1.824zm3 5.824c-1.253 0-2.348-.814-2.715-2h5.43c-.367 1.186-1.462 2-2.715 2z"/><path d="m14 20c1.103 0 2 .897 2 2h2c0-2.206-1.794-4-4-4s-4 1.794-4 4h2c0-1.103.897-2 2-2z"/><path d="m24 18c-2.206 0-4 1.794-4 4h2c0-1.103.897-2 2-2s2 .897 2 2h2c0-2.206-1.794-4-4-4z"/><path d="m19 12c1.654 0 3-1.346 3-3s-1.346-3-3-3-3 1.346-3 3 1.346 3 3 3zm0-4c.552 0 1 .449 1 1s-.448 1-1 1-1-.449-1-1 .448-1 1-1z"/><path d="m38 16v-1c0-8.271-6.729-15-15-15h-8c-8.271 0-15 6.729-15 15v1h2.024c.097 1.745.562 3.445 1.367 4.993-.845.734-1.391 1.803-1.391 3.007 0 .829.254 1.6.688 2.239-1.56.547-2.688 2.017-2.688 3.761v2c0 2.206 1.794 4 4 4v6.992c-1.283 2.409-2 5.14-2 8.008 0 3.519 2.614 6.432 6 6.92v4.08h22v-4.08c3.386-.488 6-3.401 6-6.92 0-2.868-.717-5.599-2-8.008v-6.992c2.206 0 4-1.794 4-4v-2c0-1.744-1.128-3.214-2.688-3.761.434-.639.688-1.41.688-2.239 0-1.204-.546-2.273-1.391-3.007.805-1.548 1.27-3.248 1.367-4.993zm-2.038-2h-6.986c-.274-6.512-3.199-10.091-5.777-11.99 6.741.102 12.255 5.353 12.763 11.99zm-1.962 10c0 1.103-.897 2-2 2v-4c1.103 0 2 .897 2 2zm-4 16.789c1.393 1.498 2.46 3.271 3.142 5.211h-3.142zm-2 9.49-1.75.583c-.079-.065-.167-.114-.25-.171v-12.953c.706.371 1.373.794 2 1.263zm-4.172 7.721h.172v2h-10v-2h.172c2.11 0 3.828-1.718 3.828-3.828v-.344c0-2.11-1.718-3.828-3.828-3.828-.058 0-.114.012-.172.015v-12.441c.221.063.442.123.669.172.592 2.842 1.8 5.546 3.532 7.854l.8 1.067.8-1.067c1.731-2.308 2.939-5.011 3.532-7.854.226-.049.448-.11.669-.172v12.441c-.06-.003-.116-.015-.174-.015-2.11 0-3.828 1.718-3.828 3.828v.344c0 2.11 1.718 3.828 3.828 3.828zm-15.828-12h-3.142c.682-1.941 1.749-3.714 3.142-5.212zm2-6.999c.627-.468 1.294-.891 2-1.263v12.953c-.083.058-.171.107-.25.171l-1.75-.583zm6.783-1.012c.073.001.144.011.217.011h4c.073 0 .144-.01.217-.011-.461 1.857-1.202 3.64-2.217 5.249-1.015-1.609-1.757-3.392-2.217-5.249zm4.217-1.989h-4c-4.963 0-9-4.038-9-9v-11h22v11c0 4.962-4.037 9-9 9zm-15-10c-1.103 0-2-.897-2-2s.897-2 2-2zm13-23.964c1.26.365 7.521 2.672 7.955 11.964h-15.91c.434-9.292 6.695-11.599 7.955-11.964zm-4.199-.026c-2.578 1.899-5.503 5.478-5.777 11.99h-6.986c.508-6.637 6.022-11.888 12.763-11.99zm-10.753 13.99h1.952v4c-.275 0-.544.028-.804.081-.663-1.268-1.053-2.652-1.148-4.081zm-2.048 16v-2c0-1.103.897-2 2-2h2 .051c.206 2.267 1.097 4.339 2.471 6h-4.522c-1.103 0-2-.897-2-2zm4 4h4.695c.046.032.088.069.134.1-1.869 1.021-3.496 2.361-4.829 3.939zm-2 15c0-1.024.111-2.026.308-3h3.692v2.585l-1.707 1.708 1.414 1.414 1.563-1.563 3 1 .608-.609c.341-.34.812-.535 1.294-.535 1.008 0 1.828.82 1.828 1.828v.344c0 1.008-.82 1.828-1.828 1.828h-5.172c-2.757 0-5-2.243-5-5zm6 7h2v2h-2zm16 2v-2h2v2zm3-4h-5.172c-1.008 0-1.828-.82-1.828-1.828v-.344c0-1.008.82-1.828 1.828-1.828.481 0 .953.195 1.293.535l.608.609 3-1 1.563 1.563 1.414-1.414-1.706-1.708v-2.585h3.692c.197.974.308 1.976.308 3 0 2.757-2.243 5-5 5zm3-15.961c-1.333-1.578-2.96-2.918-4.829-3.939.046-.031.088-.068.133-.1h4.696zm4-10.039v2c0 1.103-.897 2-2 2h-4.521c1.374-1.661 2.265-3.733 2.471-6h.05 2c1.103 0 2 .897 2 2zm-3.196-9.919c-.26-.053-.529-.081-.804-.081v-4h1.952c-.095 1.429-.485 2.813-1.148 4.081z"/></g></svg>