<svg id="Layer_5" enable-background="new 0 0 62 62" height="512" viewBox="0 0 62 62" width="512" xmlns="http://www.w3.org/2000/svg"><g><path d="m23 14c-1.654 0-3 1.346-3 3h2c0-.551.448-1 1-1s1 .449 1 1h2c0-1.654-1.346-3-3-3z"/><path d="m30 18h2v2h-2z"/><path d="m26 60v-2-4c0-.313.149-.612.399-.8l1.601-1.2v.615c0 2.969 2.416 5.385 5.386 5.385.502 0 1-.07 1.479-.208l5.358-1.531c.532 1.586 2.014 2.739 3.777 2.739 1.103 0 2-.897 2-2v-6c0-1.103-.897-2-2-2h-2c-.04 0-.077.009-.116.012l-.001-.005-6.039.705c.102-.505.156-1.019.156-1.541v-.343c0-2.091-.814-4.057-2.293-5.536-1.101-1.1-1.707-2.564-1.707-4.121v-.757l.563-.563c.927-.928 1.438-2.16 1.438-3.47v-.473c0-1.823-1.01-3.398-2.489-4.244-.008-.025-.015-.05-.023-.076l1.732-.533c.149.695.451 1.471 1.324 2.22 1.159.993 2.216.989 3.057.98.696-.006 1.152-.007 1.742.499.593.508.66.962.763 1.649.125.837.28 1.879 1.439 2.873 1.159.993 2.217.994 3.059.982.678-.006 1.153-.007 1.746.501l.279.241h1.247c2.887 0 5.393-1.956 6.093-4.757l.311-1.243h-3.936c-1.039-.752-1.984-.751-2.754-.742-.703.007-1.154.006-1.745-.501-.593-.508-.66-.962-.763-1.649-.125-.837-.28-1.879-1.439-2.873-1.158-.993-2.217-.988-3.057-.98-.578.006-.994-.011-1.456-.302 3.032-2.634 4.869-6.49 4.869-10.724 0-7.846-6.384-14.229-14.229-14.229h-6.771c-4.963 0-9 4.038-9 9 0 1.383.945 2.539 2.221 2.884-.141.351-.217.728-.217 1.118l.002 2.984c.001 1.02-.414 2.018-1.14 2.737-.551.548-.866 1.306-.866 2.082 0 1.118.621 2.124 1.621 2.624l.379.189v1.382c0 2.757 2.243 5 5 5h4.149c-.046.063-.098.12-.141.186l-2.416 3.624-4.883-1.627c-.711-1.35-2.089-2.183-3.619-2.183-2.255 0-4.09 1.835-4.09 4.09v.745c0 1.713 1.082 3.258 2.692 3.844l7.563 2.75c.568.206 1.152.352 1.744.447v2.709l-1.657 1.657c-1.51 1.512-2.342 3.521-2.342 5.657v4.657c-1.19.694-2 1.97-2 3.444h-16v2h18 6 38v-2zm18-3c-1.103 0-2-.897-2-2v-3.993l.058-.007 1.942-.001zm-11.707-13.293c.094.094.179.194.266.293h-8.559v-2.025c2.295-.121 4.437-1.05 6.092-2.662.241 1.657.996 3.188 2.201 4.394zm5.251-17.432c1.159.993 2.221.984 3.057.98.694-.006 1.152-.007 1.742.499.593.508.66.962.763 1.649.125.837.28 1.879 1.439 2.873 1.159.993 2.213.991 3.059.982.681-.006 1.153-.007 1.746.501l.28.241h1.871c-.767 1.22-2.119 2-3.624 2h-.531c-1.039-.752-1.986-.75-2.754-.742-.702.002-1.154.006-1.745-.501-.593-.508-.66-.962-.763-1.649-.125-.837-.28-1.879-1.439-2.873-1.158-.992-2.222-.99-3.057-.98-.694.008-1.151.008-1.742-.499-.498-.427-.622-.826-.71-1.35.823-.333 1.598-.743 2.328-1.209.028.026.051.053.08.078zm-14.544-24.275h6.771c6.743 0 12.229 5.486 12.229 12.229 0 5.402-3.47 10.1-8.633 11.689l-2.289.705c-.046-.407-.078-.816-.078-1.228v-.829l2.653-1.592c1.448-.868 2.347-2.455 2.347-4.143 0-2.381-1.73-4.365-4-4.76v-.071c0-2.206-1.794-4-4-4h-7-1.996-2.004c-.552 0-1-.449-1-1 0-3.86 3.141-7 7-7zm-4.816 24h1.744c1.602 0 3.108-.624 4.243-1.758l.535-.536-1.414-1.413-.535.535c-.755.756-1.76 1.172-2.828 1.172h-1.929v-1.618l-1.484-.742c-.319-.159-.516-.479-.516-.835 0-.247.101-.488.275-.662 1.101-1.093 1.731-2.608 1.73-4.158l-.001-2.985c0-.267.104-.518.293-.707.188-.189.44-.293.707-.293h1.996 7c1.103 0 2 .897 2 2v2h1.169c1.561 0 2.831 1.27 2.831 2.831 0 .989-.526 1.919-1.375 2.427l-3.625 2.176v1.96c0 .886.102 1.763.281 2.625-.064-.002-.124-.019-.189-.019h-8.092c-1.302 0-2.402-.839-2.816-2zm-4.808 10.8c-.823-.3-1.376-1.089-1.376-1.965v-.745c0-1.153.938-2.09 2.09-2.09.797 0 1.514.443 1.869 1.154l.331.664 5.92 1.974.842 2.525 1.896-.633-.845-2.535 2.569-3.853c.541-.812 1.445-1.296 2.42-1.296 1.603 0 2.908 1.305 2.908 2.908v.473c0 .765-.311 1.515-.852 2.056l-2.375 2.375c-1.41 1.411-3.286 2.188-5.281 2.188-.874 0-1.732-.151-2.553-.45zm6.624 15.099c0-1.603.624-3.109 1.757-4.243l1.657-1.656h10.289c.192.583.297 1.197.297 1.829v.343c0 .677-.122 1.335-.348 1.967-1.032.443-1.853 1.305-2.22 2.407l-.38 1.139 1.896.633.38-1.139c.252-.754.926-1.288 1.742-1.362l4.93-.577v3.006l-5.685 1.624c-.302.086-.614.13-.93.13-1.866 0-3.385-1.519-3.385-3.386v-3.028l-2.293-2.293-1.414 1.414 1.185 1.185-2.279 1.709c-.751.564-1.199 1.461-1.199 2.399v2h-4zm-2 8.101c0-1.103.897-2 2-2h4l.001 2z"/></g></svg>