<svg id="Layer_2" enable-background="new 0 0 32 32" height="512" viewBox="0 0 32 32" width="512" xmlns="http://www.w3.org/2000/svg"><g><path d="m30.93333 4.26667h-29.86666c-.58907 0-1.06667.4776-1.06667 1.06666s.4776 1.06667 1.06667 1.06667h29.86666c.58907 0 1.06667-.4776 1.06667-1.06667s-.4776-1.06666-1.06667-1.06666z"/><path d="m30.93333 14.93333h-29.86666c-.58907 0-1.06667.47761-1.06667 1.06667s.4776 1.06667 1.06667 1.06667h29.86666c.58907 0 1.06667-.47761 1.06667-1.06667s-.4776-1.06667-1.06667-1.06667z"/><path d="m30.93333 25.6h-29.86666c-.58907 0-1.06667.4776-1.06667 1.06667 0 .58906.4776 1.06667 1.06667 1.06667h29.86666c.58906 0 1.06667-.4776 1.06667-1.06667s-.4776-1.06667-1.06667-1.06667z"/></g></svg>