<svg id="Layer_1" enable-background="new 0 0 68 68" height="512" viewBox="0 0 68 68" width="512" xmlns="http://www.w3.org/2000/svg"><g id="_x38_6"><path d="m60.8108406 39.2040749c.2436523-.0908203.4838867-.1816406.7084961-.2822266 1.1012344-.4889565 2.5471611-.847477 2.7499962-2.2255859.1254883-.8544922-.3281212-1.7929688-1.3481407-2.7890625-1.0542259-1.0278854-1.7931938-1.9343452-3.3027344-4.001955-2.9283447-3.8925114-1.5342598-8.4548683-3.4677734-13.3974609-1.8422852-4.7070303-4.8120117-8.1855459-8.8271484-10.3408203-4.2089844-2.2578125-8.9829102-3.3886719-12.7597656-3.0195313-.4125977.0400391-.7143555.40625-.6743164.8183594s.4125977.7216797.8188477.6738281c3.5009766-.3330078 7.9487305.7255859 11.90625 2.8496094 3.6918945 1.9814458 6.4306641 5.2001958 8.1396484 9.5654297 1.8381195 4.7011185.4185486 9.4353848 3.6650391 13.7519531 1.4864388 2.0339375 2.310833 3.0586681 3.4545898 4.17383.7294922.7128906.9492188 1.2412109.9111328 1.4980469-.050766.3487396-.8953934.6750755-1.2246094.8027344-.8041115.3145561-.4663239.2147369-1.2758789.5185547-.5507813.2060547-1.1748047.4404297-1.6953125.8662109-1.1411133.9228516-.8955078 2.0654297-.7163086 2.8994141.0341797.1601563.0698242.3242188.0986328.4951172.1505203.8931732.5901146 1.7396202.4902344 2.4804688-.0336914.2392578-.1811523.5175781-.3369141.8134766-.677002 1.2786598-.7342834 1.9664955.0249023 3.1464844.1298828.2021484.2421875.3769531.2836914.546875.296875 1.1474609-.5375977 2.3125-1.4775391 2.8271484-2.5069008 1.3984184-6.7820129-.0454559-9.1533203 1.3984375-1.4329758.8929939-2.4077988 2.9007645-1.7832031 5.7470703.2060547.9335938-.3017578 1.8964844-1.1811523 2.2402344-3.2973633 1.2880859-7.0551758 1.9726563-11.8261719 2.1542969-3.7587891.1367188-6.3237305-.4169922-9.2954102-1.0664063l-.590332-.1279297c-.3525391-.0771484-.6347656-.3134766-.7734375-.6474609-.1376953-.3310547-.1074219-.6933594.0869141-.9990234 2.484375-3.9707031 2.8012695-7.3857422 1.0581055-11.4199219-.5532227-1.2724609-1.2817383-2.6923828-2.2924805-4.4697266-.1939087-.3399658-.6116943-.4607544-.9587402-.3023682-.0020142-.0032349-.0033569-.006958-.0054321-.0101929-.0073853.0055542-.0130005.0131226-.0203857.0187378-.012207.0061646-.0258789.0056763-.0379028.0125732-.1114502.0634155-.1913452.1553955-.255127.2568359-.5233154.4521484-.9931641.968689-1.3413086 1.5653076.1311035.1848145.2606201.367981.3880005.5499878 1.925415 2.7515869 3.3580322 5.2316895 2.2623901 8.84729-.0588379.1942139-.124939.3862305-.1983032.5754395-.5281372 1.3616943-2.687439 4.116333-3.9313354 6.1034546-1.9131479.2058105-5.6570444.7190552-5.6298227 1.9799156.0288696 1.3405151 7.545228 2.265686 16.788208 2.0665283 3.7928467-.0817261 7.6168823-.2671509 11.3235474-1.1348877 1.420105-.3324585 2.8179932-.7660522 4.1643677-1.3285484 1.2075195-.5044556 2.6329346-1.0562744 3.4137573-2.1647949.5382309-.7640114.7521324-1.7513199.362793-2.6599731-.0737572-.6705627-.2270622-1.0234795-.2094727-1.8430786.0092773-.9130859.3491211-2.09375 1.2685547-2.6660156 1.8401642-1.1207809 6.1696091.2693672 9.0922852-1.3632813 1.4677734-.8037109 2.6958008-2.6132813 2.2070313-4.5039063-.1674614-.689846-.6564522-1.1442642-.7597656-1.5302734-.1688614-.6110268.6721764-1.3570671.8188477-2.4082031.1054688-.7822266-.0996094-1.4746094-.2802734-2.0849609-.2496567-.8400192-.1549644-.61063-.328125-1.4101563-.2198939-1.0242539-.3963809-1.3460809 1.4716802-2.0458985z"/><path d="m12.6340208 26.7696247c-.793395 1.3879585-.8963099 1.6242008-1.2836304 2.3416748-1.1357422 2.109375-3.2490234 6.0351582-1.1010742 7.9072285.515625.4492188 1.1230469.6308594 1.7709961.6308594 2.2136707 0 4.9378901-2.0979195 6.7199717-3.4078369.9499512 4.5791016 2.4946289 7.7769775 4.6037598 7.7769775 2.3323364 0 3.9740601-3.9113159 4.8849487-9.276062 1.3859253.8068237 2.9924316 1.6607666 4.6472778 2.2994995 1.7733536.6869316 4.3433418.9195824 5.6083984-.53125 1.9311523-2.2156372-.5369263-5.5260639-2.8590698-8.0693378 3.3062134-.5651245 7.9152222-1.65448 7.9152222-4.6191406 0-3.2660522-5.6937866-4.4246216-9.2172852-4.9855347 1.6454468-2.6453848 4.5079346-7.5266104 1.9091797-9.7927856-1.4482422-1.2626953-3.6367188-.6484375-5.0708008.2587891-1.0691528.677124-2.1362915 1.4178472-3.1932373 2.2019048-.9481201-4.6337895-2.4998779-7.8796391-4.6246338-7.8796391-2.3363647 0-3.9798584 3.9246216-4.8897705 9.303894-1.2654419-.7587891-2.5410776-1.4441528-3.8255625-2.0128784-1.3461914-.5966789-4.4970703-1.9921872-6.1191406-.1337883-1.6859965 1.9352226.2152481 4.9291458 1.652832 7.0263672.3532715.5161123.7254028 1.0150747 1.1038818 1.501647-.583313.0956421-1.1676025.1885376-1.7454834.2639771-1.8198237.2373047-5.809082 1.6396484-5.8105469 4.2646484-.0019531 2.8242188 3.9438479 3.7910156 5.8398438 4.2548828.187048.0432358 1.1566935.3051777 3.0839234.6759033zm-1.399353 9.1180439c-1.3260059-1.155899.8777742-5.0305824 1.706543-6.571291.3981934-.7637329.817627-1.5189819 1.2543945-2.2658691 1.2059326.196106 2.4194956.3449097 3.6362314.4606323.1365356 1.7803345.3376465 3.4991455.6031494 5.0923481-1.5052681 1.1395684-5.806654 4.4966126-7.2003183 3.2841797zm15.6882944-23.6766367c.1710205 1.1618042.3139648 2.4234619.4220581 3.7783203-.7356567-.0474854-1.4709473-.0877075-2.2081909-.104126-.4001465-.3464966-.8002319-.6930542-1.2064209-1.031311 1.2687225-1.1956234 2.1474323-1.9538689 2.9925537-2.6428833zm.1535034 18.0593863c-.7061768-.4477539-1.4094238-.9000244-2.0892334-1.3844604.2414551-.239563.489563-.4697266.727417-.7141113.1557007-.1599731.2994995-.3313599.4533691-.4931641.394165-.0219727.7875977-.0523071 1.1810303-.0826416-.0740967.939392-.1670532 1.8263549-.272583 2.6743774zm-9.458374-8.3518677c.0001831.1460571.0016479.2921143.0026245.4381714-.0620117-.0662231-.123291-.1297607-.1851807-.1951294.0602417-.0814209.1218262-.1619263.1825562-.243042zm3.7634888-4.4949951c1.715435-.0869331 2.4448013-.0663815 3.1792603-.0578003 1.0151978.8905029 2.0155029 1.7998047 2.9870605 2.7409668.0269337 1.2420349.0352402 2.2278023-.0043945 3.760498-.6635132.7977295-1.3486938 1.5754395-2.0551147 2.3344727-1.2804565.0568848-2.5631714.0623169-3.8474731.027832-.8606567-.7421875-1.6915894-1.5168457-2.4957886-2.321106-.0390568-1.4814377-.0336914-2.6169395-.0032959-3.9251099.7199706-.8767699 1.467224-1.72937 2.239746-2.5597533zm-2.144043 8.685791c.010376.0096436.0214844.0183716.0317993.0280151-.0100708-.0006714-.0200195-.0020752-.0300903-.0027466-.0005493-.0086669-.0012207-.0166015-.001709-.0252685zm.1047973 1.5348511c.5799561.0391235 1.1600952.0704956 1.7402344.0915527.5268555.4436035 1.0703125.8659058 1.6161499 1.286438-.9469604.8839722-1.9237061 1.7181396-2.9158936 2.5211792-.178894-1.1959229-.3287963-2.4961548-.4404907-3.8991699zm4.1781617.1192627c.1601563-.0012207.3199463-.0085449.4801025-.0111694-.0718994.0715942-.1446533.1418457-.2168579.2129517-.0878906-.0670778-.1758423-.1340944-.2632446-.2017823zm5.5050049-3.3389893c.4179688-.5119019.8363647-1.0227051 1.2365723-1.5488281 1.2497692 1.3309193 1.8916702 2.0844231 2.3227539 2.5392456-1.2020264.2164917-2.411499.3868408-3.6263428.5201416.0272216-.5008545.0498046-1.0044556.0670166-1.5105591zm.0442504-2.4584961c.000061-.0479126-.0001221-.2647095-.0002441-.3252563.0452881.0462646.0915527.0914917.1367188.1378174-.0465088.0617065-.0896607.1259155-.1364747.1874389zm-.0364379-2.4907226c-.019165-.6260986-.0459595-1.2490234-.0804443-1.8672485.9624023.0946655 1.9221802.2149048 2.8781128.364502-.5532837.8755493-1.1295166 1.7351685-1.7305298 2.5785522-.3536378-.3605958-.7069093-.7215577-1.0671387-1.0758057zm-1.5600586-1.4868775c-.1935425-.1807861-.3867798-.3617554-.5820313-.5406494.1853027.0106812.3705444.0218506.5557251.0345459.0095825.1669922.0178223.3366089.0263062.5061035zm-6.7996216-2.0046377c-.4452515.0278921-.8909912.041503-1.3356934.0807486.0721436-.9168692.1618042-1.7847891.2639771-2.6148672.6917114.4737549 1.3777466.9762573 2.0587769 1.5075073-.3354493.3361206-.6600953.6820678-.9870606 1.0266113zm-3.017334 3.4405508c-.5503292.6825714.0608807-.1429501-1.267334 1.6340332-1.2872486-1.3408241-1.4771013-1.6039925-2.3640146-2.7039185 1.2167358-.2191162 2.4590464-.4384766 3.7024546-.605957-.0298462.5552979-.0535279 1.1143189-.071106 1.6758423zm-1.1135254 3.9759521c.6385307.6829395.684824.694994 1.1235352 1.1448364.0172729.4862671.0401611.9699097.0667114 1.4512329-.8977661-.0895386-1.793458-.1972046-2.6853647-.3317261.4794921-.7659911.9768686-1.5213622 1.4951181-2.2643432zm6.8012695 17.1182881c-1.0704956 0-2.3946533-2.6307373-3.2730713-7.2758789 1.3143311-1.0305176 2.5963135-2.1291523 3.835022-3.295351 1.6272907 1.1732006 2.6137981 1.757349 2.9395752 1.9672852-.8627319 5.4703387-2.3330078 8.6039447-3.5015259 8.6039447zm14.0097657-6.9941406c-.777832.8955078-2.828125.546875-3.9370117.1191406-1.7748413-.68573-3.4991455-1.6391602-4.9438477-2.5006123.161499-1.1815796.2911987-2.4155273.3873901-3.6817627 2.7555199-.2889156 4.1864929-.603651 4.9822388-.7320557 1.8874512 2.0022584 4.7745972 5.3460103 3.5112305 6.7952901zm4.6870117-11.7021504c0 2.0122681-5.3051758 2.9283447-7.6563721 3.3015137-1.8203545-1.8911266-1.1711884-1.3165035-3.2214966-3.4848633.8018188-1.1143188 1.5724487-2.2503662 2.2925415-3.4194336 2.4813233.3809204 8.5853272 1.4074097 8.5853272 3.6027832zm-10.0761719-13.2519522c.9082413-.5763001 2.4591026-1.1138873 3.2827148-.3955078 1.7736893 1.5462694-1.3039742 6.4375706-2.5349731 8.4121695-1.1917591-.1913261-2.186451-.3374519-3.859375-.4938965-.1326904-1.7171011-.3259888-3.3752432-.5787964-4.9192495 1.2200318-.9310303 2.4517822-1.8188477 3.6904297-2.6035157zm-8.6206055-5.4453129c1.079834 0 2.418457 2.6742554 3.2965698 7.3957524-1.1471291.9045763-2.119278 1.7059383-3.8876343 3.3851318-.9626465-.7583618-1.9368896-1.4612427-2.9212646-2.1090088.8612061-5.5125737 2.3390503-8.6718754 3.5123291-8.6718754zm-12.5625009 6.2304692c1.9597902 0 5.7662058 2.1296568 7.430665 3.1663208-.1618652 1.1876831-.291748 2.4279785-.3876953 3.7006826-1.5739574.2010975-3.1501341.48946-4.8696909.7974243-2.0705423-2.5850543-5.4855094-7.6644277-2.1732788-7.6644277zm-5.5712886 12.4833975c.0004883-1.4179688 2.9755855-2.578125 4.5043941-2.7763672.8762207-.1144409 1.7532349-.2597656 2.6246338-.4110718 1.3749123 1.6947441 1.4008102 1.8215122 3.1472168 3.6357422-.7149048 1.0128784-1.3884277 2.0516968-2.0325317 3.1065063-2.2080088-.4012451-3.4079571-.7252979-3.546936-.756958-1.4057619-.34375-4.6977536-1.1503906-4.696777-2.7978515z"/></g></svg>